<svg width="16" height="16" viewBox="0 0 16 16" fill="none" xmlns="http://www.w3.org/2000/svg">
  <mask id="mask0_2261_5499" style="mask-type:alpha" maskUnits="userSpaceOnUse" x="0" y="0" width="16" height="16">
    <rect y="16" width="16" height="16" transform="rotate(-90 0 16)" fill="#C0C0C0"/>
  </mask>
  <g mask="url(#mask0_2261_5499)" transform="rotate(90 8 8)">
    <path d="M8.00007 10.6335L12.9001 5.73353C13.0667 5.56686 13.2612 5.48631 13.4834 5.49186C13.7056 5.49742 13.9001 5.58353 14.0667 5.75019C14.2334 5.91686 14.3167 6.11131 14.3167 6.33353C14.3167 6.55575 14.2334 6.75019 14.0667 6.91686L8.95007 12.0502C8.81674 12.1835 8.66674 12.2835 8.50007 12.3502C8.33341 12.4169 8.16674 12.4502 8.00007 12.4502C7.83341 12.4502 7.66674 12.4169 7.50007 12.3502C7.33341 12.2835 7.18341 12.1835 7.05007 12.0502L1.91674 6.91686C1.75007 6.7502 1.66952 6.55297 1.67507 6.3252C1.68063 6.09742 1.76674 5.9002 1.93341 5.73353C2.10007 5.56686 2.29452 5.48353 2.51674 5.48353C2.73896 5.48353 2.93341 5.56686 3.10007 5.73353L8.00007 10.6335Z" fill="#303030"/>
  </g>
</svg>